#!OML:ASF I:\Actors\actors\Patient Classification 1\Patient 1\Session 1\Subject1.ASF
:FULLY-SPECIFIED
:DEGREES
847
root -0.091494 17.7362 7.67857 20.5844 -3.35692 -12.404
lowerback 13.4211 2.01463 3.42044
upperback 8.91627 2.94191 2.13576
thorax 1.93451 1.52919 -0.0264355
lowerneck 6.85082 -16.6702 -12.1234
upperneck 15.6428 -25.6187 20.0229
head 7.97964 -12.3983 6.49124
rclavicle 1.70955e-014 3.69739e-014
rhumerus 72.7224 30.1125 -28.6223
rradius 25.9374
rwrist 49.4438
rhand 5.98874 309.786
rfingers 7.12502
rthumb 31.3126 -77.5558
lclavicle 1.70955e-014 3.69739e-014
lhumerus -17.0759 -60.1892 90.7015
lradius 101.568
lwrist 43.4656
lhand -16.034 -16.3265
lfingers 7.12502
lthumb 10.1674 13.4078
rfemur -24.1739 20.2947 23.9175
rtibia 9.48521
rfoot -7.99508 -19.3676
rtoes -1.71606
lfemur -16.9847 -42.4104 9.23069
ltibia -2.17778
lfoot -29.898 56.892
ltoes 19.8889
848
root -0.0867846 17.7337 7.67667 20.691 -3.6952 -12.4006
lowerback 13.3168 1.88579 3.35534
upperback 8.92357 2.76031 2.28341
thorax 1.98215 1.4318 0.18755
lowerneck 7.0607 -16.5996 -12.428
upperneck 15.6756 -25.5322 19.9226
head 7.96454 -12.3869 6.53129
rclavicle 1.43125e-014 -2.54444e-014
rhumerus 70.9185 29.0374 -32.9931
rradius 24.6124
rwrist 53.509
rhand 4.94088 311.419
rfingers 7.12502
rthumb 30.3136 -76.1108
lclavicle 1.43125e-014 -2.54444e-014
lhumerus -17.5582 -59.2759 90.7684
lradius 101.51
lwrist 43.4112
lhand -15.8903 -15.9578
lfingers 7.12502
lthumb 10.306 13.7697
rfemur -24.3753 20.4434 23.8079
rtibia 9.59691
rfoot -7.9243 -19.1994
rtoes -1.76089
lfemur -16.9163 -42.7452 9.2143
ltibia -2.25496
lfoot -30.9161 57.3219
ltoes 20.346
849
root -0.0830203 17.7303 7.67605 20.8021 -4.15697 -12.3734
lowerback 13.2779 1.87254 3.41052
upperback 8.90503 2.74508 2.30847
thorax 1.9847 1.42479 0.185434
lowerneck 7.33365 -16.5699 -12.5853
upperneck 15.4937 -25.5246 20.1496
head 7.91046 -12.4105 6.65409
rclavicle 1.27222e-014 2.18663e-014
rhumerus 70.2284 28.5374 -33.756
rradius 24.3331
rwrist 54.5785
rhand 4.04272 310.184
rfingers 7.12502
rthumb 29.4565 -77.5002
lclavicle 1.27222e-014 2.18663e-014
lhumerus -17.8527 -58.7565 90.6478
lradius 101.447
lwrist 43.5347
lhand -15.6089 -15.3169
lfingers 7.12502
lthumb 10.5774 14.3969
rfemur -24.5682 20.5732 23.6795
rtibia 9.70056
rfoot -7.83108 -18.917
rtoes -2.00827
lfemur -16.7562 -43.2369 9.11835
ltibia -2.34644
lfoot -32.5005 57.8415
ltoes 21.1786
850
root -0.0807881 17.7289 7.672 20.9171 -4.57768 -12.2791
lowerback 13.305 1.85363 3.41549
upperback 8.88 2.72095 2.33256
thorax 1.9422 1.41078 0.208548
lowerneck 7.4477 -16.6037 -12.5513
upperneck 15.328 -25.5573 20.2023
head 7.84494 -12.438 6.67348
rclavicle -7.95139e-016 5.76476e-014
rhumerus 68.303 26.9666 -38.0424
rradius 23.4776
rwrist 57.8281
rhand 3.85822 311.825
rfingers 7.12502
rthumb 29.2803 -75.8904
lclavicle -7.95139e-016 5.76476e-014
lhumerus -18.1169 -58.4339 90.5248
lradius 101.346
lwrist 43.2844
lhand -15.8117 -15.0462
lfingers 7.12502
lthumb 10.3818 14.6775
rfemur -24.7623 20.7551 23.4332
rtibia 9.73848
rfoot -7.75782 -18.7551
rtoes -2.30932
lfemur -16.6825 -43.4614 8.95226
ltibia -2.37684
lfoot -33.6354 58.1347
ltoes 21.8342
851
root -0.07729 17.7247 7.6762 21.0586 -5.18598 -12.2542
lowerback 13.1299 1.86352 3.35105
upperback 8.90625 2.7152 2.40423
thorax 2.05643 1.40352 0.326891
lowerneck 7.53343 -16.678 -12.4447
upperneck 15.1775 -25.5824 19.9408
head 7.7315 -12.4643 6.57994
rclavicle 3.57812e-014 1.78906e-014
rhumerus 67.5294 25.9833 -39.8468
rradius 23.0349
rwrist 59.1764
rhand 3.86872 312.25
rfingers 7.12502
rthumb 29.2904 -75.4639
lclavicle 3.57812e-014 1.78906e-014
lhumerus -18.5372 -58.0734 90.6054
lradius 101.194
lwrist 42.568
lhand -16.573 -15.3471
lfingers 7.12502
lthumb 9.64735 14.412
rfemur -24.9328 20.9103 23.2871
rtibia 9.76731
rfoot -7.64549 -18.3512
rtoes -2.83564
lfemur -16.4023 -43.9853 8.76308
ltibia -2.49998
lfoot -35.9697 58.5446
ltoes 23.3458
